<mxfile host="app.diagrams.net" modified="2021-12-08T10:01:58.249Z" agent="5.0 (Windows NT 6.1; Win64; x64) AppleWebKit/537.36 (KHTML, like Gecko) Chrome/96.0.4664.55 Safari/537.36 Edg/96.0.1054.43" etag="DYuahz6vruJ7fTxbHCmR" version="15.9.1" type="github">
  <diagram id="cN47Z9B3b-MoFyeB0Vu2" name="Page-1">
    <mxGraphModel dx="931" dy="751" grid="1" gridSize="10" guides="1" tooltips="1" connect="1" arrows="1" fold="1" page="1" pageScale="1" pageWidth="827" pageHeight="1169" math="0" shadow="0">
      <root>
        <mxCell id="0" />
        <mxCell id="1" parent="0" />
        <mxCell id="s9Y3Hg6uqbfLQvmprPiz-1" value="" style="rounded=1;whiteSpace=wrap;html=1;" vertex="1" parent="1">
          <mxGeometry x="370" y="100" width="130" height="40" as="geometry" />
        </mxCell>
        <mxCell id="s9Y3Hg6uqbfLQvmprPiz-2" value="" style="ellipse;whiteSpace=wrap;html=1;aspect=fixed;" vertex="1" parent="1">
          <mxGeometry x="395" y="200" width="70" height="70" as="geometry" />
        </mxCell>
      </root>
    </mxGraphModel>
  </diagram>
</mxfile>
